<svg width="96" height="96" viewBox="0 0 96 96" fill="none" xmlns="http://www.w3.org/2000/svg">
  <defs>
    <linearGradient id="g" x1="8" y1="82" x2="86" y2="12" gradientUnits="userSpaceOnUse">
      <stop stop-color="#052B8E"/>
      <stop offset="0.48" stop-color="#096CFF"/>
      <stop offset="1" stop-color="#19C8FF"/>
    </linearGradient>
    <linearGradient id="s" x1="28" y1="78" x2="62" y2="38" gradientUnits="userSpaceOnUse">
      <stop stop-color="#00133F"/>
      <stop offset="1" stop-color="#0B7EFF"/>
    </linearGradient>
  </defs>
  <path d="M22 18H82C85.8 18 88.1 22.1 86.1 25.3L77 40C75.4 42.6 72.6 44.2 69.5 44.2H58.3L42.6 77.7C41.8 79.4 40.1 80.5 38.2 80.5H22.9L42.2 39.4H19.6L22 18Z" fill="url(#g)"/>
  <path d="M42.2 39.4H19.6L21.1 26.3H65.8L58.3 44.2L42.6 77.7C41.8 79.4 40.1 80.5 38.2 80.5H22.9L42.2 39.4Z" fill="url(#s)" fill-opacity="0.88"/>
  <rect x="6" y="30" width="20" height="5" rx="2.5" fill="#1197FF"/>
  <rect x="10" y="43" width="27" height="6" rx="3" fill="#EAF6FF" fill-opacity="0.96"/>
  <rect x="4" y="56" width="28" height="6" rx="3" fill="#0A72FF"/>
</svg>
